<svg width="800" height="600" xmlns="http://www.w3.org/2000/svg">
 <g>
  <title>Layer 1</title>
  <path id="svg_1" d="m337.79999,184.19999" opacity="NaN" stroke="#000" fill="#fff"/>
  <path fill="#fff" stroke="#000" opacity="NaN" d="m449,201" id="svg_4"/>
  <path d="m101.8,49.19999c-1,0 -1.61065,0.15928 -3,3c-1.58411,3.23892 -3,8 -3,12c0,5 0,9 0,13c0,5 1.28859,7.86829 3,12c1.21015,2.92156 2.32367,5.52016 4,7c2.703,2.38616 6,7 10,11c3,3 3.797,4.2565 5,5c2.68999,1.66251 6.34508,2.91874 10.99999,5c4.56453,2.04085 10.87605,4.34315 16,6c7.84622,2.53711 15.87593,4.99659 28,6.00001c7.97275,0.65985 16.9626,1.49937 27,2c7.99007,0.39851 16.96881,0.49957 29,1c9.99136,0.41559 20,0 28,0c6,0 12,-1 18,-3c6,-2.00001 11.90494,-5.31178 18,-7.00001c8.88501,-2.46101 14.92578,-3.49755 20,-4c5.97079,-0.59122 13,0 21,0c9,0 15.79025,0.99024 23,2c3.96133,0.5548 8.88733,1.37669 15,3c4.92819,1.30875 12,4 18,7.00001c8,4 16.89365,6.33449 29,10c10.91254,3.30405 21.97379,7.0602 38,14c13.97736,6.05258 28.6366,8.00284 44,14c11.67218,4.55629 21.11407,10.77957 29,15c7.10828,3.80424 13.57855,10.44849 21,17c8.54767,7.54572 12.64838,10.42654 17,15.99998c3.58844,4.59598 5,11 5,16c0,6 0,10 0,13c0,3 -2.21259,5.67122 -7,9c-5.25714,3.65543 -19.96515,10.12402 -34,14c-14.96399,4.13257 -32.87405,8.8905 -51,11c-14.93253,1.73785 -27.97324,4.49969 -42,5c-12.99173,0.46341 -23.96262,3.49939 -34,4c-9.98758,0.49814 -19,0 -30,0c-6,0 -13.97498,-2.16382 -20,-3c-8.96942,-1.24481 -22.04996,-3.74237 -33,-6c-13.06683,-2.69406 -25.80011,-4.86398 -37,-7c-8.89505,-1.69644 -16.02249,-1.63345 -19,-2c-4.09222,-0.50378 -6,-1 -9,-1c-2,0 -5,0 -10,0c-6,0 -12,1 -19,2c-7,1 -16.88731,3.37668 -23,5c-4.92821,1.30875 -10.37814,1.84628 -15,4c-5.80391,2.70456 -9.07645,4.94379 -12,9c-1.84901,2.56537 -3.54863,7.76993 -5,12c-1.65482,4.82303 -3.49623,11.90778 -4,16c-0.61092,4.96252 -0.61092,11.03748 0,16c0.50377,4.09222 1.89163,11.25058 4,18c2.00017,6.40308 4.43288,10.80243 7,17c2.4203,5.84314 9.52556,18.51532 16,24c6.56375,5.56033 16.75305,11.58344 28,16c11.77385,4.62347 22.96402,7.20911 34,9c13.95953,2.26532 27.02316,3.75296 39,5c16.03781,1.66989 27.78046,3.08096 40,5c14.85126,2.33234 32.03726,3.3989 53,5c19.0495,1.45496 34,2 44,2c10,0 21.00845,0.04602 32,-2c21.01654,-3.91211 37.02451,-4.59323 57,-6c22.03613,-1.55191 45.94238,-3.99927 72,-5c25.98083,-0.9978 50,-2 70,-2c18,0 34,0 48,0c12,0 16.41205,-1.03146 20,1c4.92261,2.78714 7,8 8,12c1,4 3.49756,7.92578 4,13c0.68976,6.96594 1.23688,12.34348 -1,18c-3.97772,10.05872 -11.83661,17.22427 -20,23c-11.77344,8.32986 -23.72693,14.02911 -37,17c-13.80066,3.08896 -29.00885,3.53949 -41,4c-13.02881,0.50037 -27,1 -38,1c-15,0 -23.00995,0.6015 -31,1c-10.03741,0.50061 -23.00885,1.53946 -35,2c-13.02881,0.5004 -27.04846,-0.07764 -39,1.00003c-11.13516,1.00403 -22,2 -33,2c-17,0 -29.01862,0.75189 -44,2c-10.01517,0.83435 -21.05994,3.02252 -29,4c-8.18442,1.00757 -15.96393,4.08557 -23,7c-4.97525,2.06079 -9,5 -12,7c-3,2 -3,3 -3,5c0,1 0,1 0,2c0,1 0,3 0,4c0,1 0,2 0,3c0,1 0,2 0,3c0,1 0,1 0,2l-1,0l-1,1l0,0" id="svg_12" stroke="#000" fill="none"/>
 </g>

</svg>